<?xml version="1.0" encoding="utf-8"?>
<svg version="1.0" xmlns="http://www.w3.org/2000/svg" width="546.000000pt" height="1572.000000pt" viewBox="44.939 85.242 462.264 1446.279" preserveAspectRatio="xMidYMid meet">
  <g transform="translate(0.000000,1572.000000) scale(0.100000,-0.100000)" fill="#000000" stroke="none">
    <path d="M 2696 14764 C 2652 14756 2597 14739 2573 14725 C 2534 14703 2527 14703 2502 14716 C 2388 14775 2212 14658 2111 14454 C 2095 14422 2046 14287 2002 14155 C 1959 14023 1895 13847 1862 13763 C 1735 13448 1713 13309 1750 13080 C 1769 12963 1781 12931 1826 12881 C 1937 12758 2189 12697 2349 12754 C 2373 12763 2395 12768 2397 12766 C 2407 12756 2338 12631 2304 12596 C 2230 12520 2092 12475 1830 12441 C 1665 12420 1592 12399 1515 12348 C 1421 12286 1343 12146 1294 11952 C 1249 11773 1239 11647 1230 11120 C 1221 10600 1216 10536 1164 10260 C 1136 10110 1131 10093 994 9773 C 895 9542 881 9481 825 9020 C 786 8701 753 8490 720 8350 C 703 8281 687 8187 684 8140 C 681 8093 670 8033 660 8005 C 639 7946 625 7843 605 7608 C 597 7513 587 7408 584 7374 C 572 7263 628 7154 770 7009 C 831 6947 862 6905 892 6845 C 940 6749 1002 6680 1041 6680 C 1087 6680 1095 6702 1095 6829 C 1095 6994 1062 7123 993 7234 C 969 7271 969 7276 979 7350 C 985 7393 996 7444 1003 7462 C 1016 7495 1017 7494 1024 7413 C 1031 7318 1059 7238 1102 7186 C 1152 7125 1242 7091 1268 7123 C 1276 7132 1274 7153 1259 7201 C 1240 7259 1239 7281 1244 7431 C 1252 7637 1246 7666 1163 7829 C 1090 7972 1087 8000 1120 8148 C 1161 8334 1227 8483 1415 8820 C 1526 9019 1597 9165 1628 9260 C 1672 9392 1678 9440 1710 9858 C 1715 9932 1727 10019 1735 10053 C 1755 10133 1841 10392 1846 10388 C 1848 10386 1863 10310 1880 10220 C 1907 10083 1913 10022 1917 9860 C 1921 9729 1919 9646 1911 9608 C 1896 9539 1845 9431 1756 9283 C 1646 9100 1569 8913 1496 8650 C 1396 8290 1360 8088 1360 7890 C 1360 7816 1355 7728 1350 7695 C 1344 7662 1330 7543 1318 7430 C 1299 7252 1296 7171 1296 6815 C 1297 6273 1325 5960 1410 5551 C 1456 5331 1471 5184 1460 5071 C 1447 4945 1425 4870 1323 4595 C 1236 4362 1182 4126 1161 3885 C 1124 3482 1143 3066 1220 2594 C 1263 2331 1271 2214 1273 1866 C 1275 1564 1274 1553 1252 1490 C 1239 1454 1218 1355 1206 1268 C 1181 1100 1169 1067 1081 912 C 991 751 981 679 1041 607 C 1103 531 1234 491 1435 486 C 1507 484 1577 479 1592 475 C 1633 464 1724 488 1770 521 C 1862 588 1873 668 1815 834 L 1780 933 L 1808 964 C 1878 1044 1908 1136 1896 1233 C 1892 1264 1866 1353 1838 1432 C 1788 1573 1787 1577 1783 1715 C 1776 1921 1782 1944 2035 2710 C 2248 3355 2274 3463 2273 3730 C 2273 3852 2268 3925 2253 4010 C 2233 4119 2225 4180 2200 4396 C 2184 4540 2186 4553 2235 4648 C 2368 4904 2439 5171 2480 5575 C 2524 6002 2531 6069 2551 6185 C 2582 6369 2671 6707 2694 6725 C 2708 6737 2749 7021 2752 7125 C 2754 7192 2738 7447 2724 7593 L 2717 7660 L 2756 7660 C 2815 7660 2819 7654 2810 7585 C 2788 7420 2778 7183 2789 7085 C 2811 6900 2837 6768 2902 6530 C 2972 6269 2995 6126 3040 5660 C 3070 5360 3101 5173 3150 5015 C 3172 4940 3254 4732 3280 4680 C 3328 4587 3333 4556 3321 4426 C 3306 4267 3294 4172 3268 4020 C 3252 3926 3246 3853 3246 3725 C 3246 3458 3278 3323 3485 2705 C 3728 1980 3734 1956 3735 1745 L 3735 1585 L 3697 1480 C 3675 1422 3649 1341 3638 1300 C 3603 1170 3626 1059 3704 973 L 3739 933 L 3705 834 C 3667 725 3659 639 3684 591 C 3719 523 3804 477 3890 477 C 4300 479 4470 532 4511 670 C 4527 722 4505 788 4430 924 C 4345 1076 4342 1085 4314 1265 C 4301 1353 4280 1454 4267 1490 C 4246 1552 4245 1569 4246 1875 C 4247 2211 4255 2331 4295 2570 C 4353 2918 4372 3145 4372 3485 C 4372 3829 4351 4043 4293 4280 C 4269 4381 4254 4426 4141 4750 C 4053 5002 4033 5162 4069 5330 C 4133 5632 4152 5728 4170 5850 C 4201 6054 4219 6256 4225 6445 C 4228 6539 4233 6647 4235 6685 C 4237 6724 4235 6961 4225 7220 C 4222 7300 4210 7439 4199 7530 C 4188 7621 4175 7785 4170 7895 C 4159 8150 4126 8330 4023 8690 C 3949 8953 3883 9105 3742 9346 C 3656 9494 3608 9631 3613 9852 C 3617 10049 3621 10093 3649 10234 C 3666 10321 3680 10395 3681 10399 C 3682 10414 3763 10176 3784 10095 C 3819 9962 3840 9570 3844 9528 C 3855 9430 3886 9298 3916 9223 C 3957 9119 4166 8705 4216 8628 C 4307 8487 4376 8318 4409 8153 C 4441 8000 4439 7987 4370 7850 C 4284 7678 4278 7650 4286 7445 C 4292 7287 4291 7270 4271 7212 C 4246 7140 4253 7120 4299 7120 C 4402 7121 4498 7270 4503 7435 C 4504 7470 4508 7500 4512 7500 C 4523 7500 4541 7436 4551 7357 C 4560 7286 4559 7277 4541 7254 C 4508 7212 4462 7089 4445 6995 C 4425 6891 4428 6732 4449 6706 C 4491 6655 4569 6719 4644 6867 C 4679 6934 4707 6973 4765 7030 C 4854 7118 4898 7181 4930 7269 C 4952 7329 4953 7338 4942 7419 C 4935 7466 4926 7570 4920 7650 C 4906 7836 4885 7982 4865 8019 C 4857 8036 4850 8074 4850 8104 C 4850 8152 4826 8299 4805 8383 C 4798 8409 4777 8513 4777 8513 C 4756 8620 4738 8748 4700 9055 C 4649 9473 4627 9577 4560 9725 C 4446 9974 4397 10108 4369 10250 C 4316 10514 4309 10592 4300 11117 C 4290 11643 4279 11793 4235 11955 C 4222 12005 4208 12053 4205 12063 C 4199 12077 4192 12113 4155 12183 C 4089 12313 3996 12390 3867 12424 C 3836 12432 3748 12446 3673 12455 C 3367 12492 3227 12558 3164 12694 C 3151 12721 3142 12745 3143 12747 C 3151 12754 3190 12735 3190 12724 C 3190 12703 3321 12706 3401 12728 C 3639 12794 3740 13001 3685 13311 C 3662 13443 3467 14109 3417 14227 C 3301 14502 3108 14703 2901 14764 C 2836 14783 2802 14783 2696 14764 Z M 2933 14720 C 3014 14689 3098 14630 3175 14549 C 3303 14413 3382 14263 3458 14010 C 3558 13681 3639 13393 3654 13311 C 3693 13107 3652 12925 3548 12835 C 3474 12772 3428 12756 3315 12756 C 3226 12755 3208 12758 3156 12783 C 3124 12798 3096 12810 3094 12810 C 3072 12810 3146 12647 3190 12597 C 3267 12509 3424 12453 3670 12425 C 3881 12401 3974 12366 4049 12285 C 4093 12238 4136 12168 4145 12128 C 4151 12104 4175 12068 4205 11950 C 4243 11802 4251 11723 4257 11438 L 4262 11150 C 4262 11150 4260 11129 4261 11128 C 4261 11126 4265 11015 4270 10880 C 4279 10602 4288 10513 4332 10280 C 4363 10112 4392 10029 4534 9705 L 4569 9625 C 4569 9625 4623 9433 4675 9010 C 4708 8741 4728 8594 4745 8508 C 4757 8441 4769 8402 4789 8308 C 4802 8251 4814 8167 4817 8120 C 4820 8073 4826 8031 4830 8025 C 4853 7996 4873 7868 4890 7640 C 4895 7566 4905 7466 4911 7417 C 4922 7340 4921 7325 4906 7287 C 4865 7188 4840 7151 4749 7056 C 4677 6981 4642 6935 4612 6875 C 4570 6792 4512 6720 4487 6720 C 4469 6720 4460 6763 4460 6846 C 4460 6846 4470 6931 4470 6958 C 4470 7027 4536 7206 4580 7255 C 4596 7272 4597 7283 4588 7330 C 4564 7470 4557 7492 4533 7520 C 4508 7551 4472 7575 4464 7568 C 4462 7565 4465 7538 4470 7508 C 4495 7374 4433 7214 4338 7164 C 4289 7138 4280 7144 4299 7193 C 4312 7227 4315 7275 4315 7440 C 4316 7553 4320 7659 4324 7675 C 4329 7692 4362 7762 4396 7832 C 4468 7975 4470 7990 4445 8131 C 4417 8293 4340 8491 4251 8630 C 4194 8718 3990 9122 3947 9232 C 3916 9309 3884 9438 3875 9527 L 3868 9589 C 3868 9589 3865 9615 3855 9795 C 3845 9987 3831 10054 3754 10292 C 3713 10418 3680 10528 3680 10536 C 3680 10544 3676 10550 3671 10550 C 3667 10550 3660 10517 3657 10478 C 3653 10438 3637 10331 3620 10240 C 3584 10050 3569 9857 3577 9718 L 3592 9585 L 3619 9515 C 3634 9477 3683 9384 3727 9310 C 3880 9050 3949 8871 4051 8467 C 4116 8209 4130 8115 4139 7880 C 4144 7762 4151 7658 4154 7650 C 4167 7615 4192 7319 4197 7133 C 4197 7133 4201 6906 4204 6901 C 4214 6886 4191 6291 4175 6140 C 4147 5873 4116 5679 4066 5469 C 4020 5272 4015 5223 4028 5088 C 4041 4946 4064 4862 4156 4614 C 4235 4400 4280 4228 4312 4025 C 4333 3886 4335 3846 4335 3470 C 4334 3035 4328 2958 4265 2577 C 4232 2379 4221 2251 4211 1960 C 4203 1689 4210 1562 4240 1476 C 4250 1445 4269 1355 4280 1277 C 4307 1098 4318 1063 4397 920 C 4467 793 4493 721 4483 681 C 4459 578 4322 524 4061 514 C 3862 506 3842 507 3791 532 C 3697 579 3676 665 3726 803 C 3779 948 3779 941 3732 989 C 3685 1037 3650 1120 3650 1183 C 3650 1233 3690 1386 3724 1467 C 3759 1552 3773 1632 3772 1748 C 3771 1923 3738 2046 3506 2740 C 3432 2963 3362 3179 3351 3220 C 3266 3542 3254 3729 3299 4018 C 3355 4367 3366 4521 3345 4620 C 3345 4623 3330 4652 3313 4685 C 3235 4837 3154 5083 3120 5272 C 3103 5366 3074 5617 3055 5825 C 3032 6090 2996 6297 2938 6510 C 2872 6749 2842 6902 2819 7098 C 2808 7199 2809 7213 2835 7538 C 2838 7572 2843 7613 2846 7629 C 2855 7671 2830 7690 2766 7690 C 2686 7690 2684 7685 2698 7527 C 2719 7295 2724 7092 2711 6983 C 2704 6921 2679 6812 2650 6711 C 2544 6346 2516 6213 2486 5925 C 2420 5305 2407 5217 2355 5035 C 2320 4915 2246 4729 2199 4643 C 2173 4595 2160 4558 2160 4533 C 2160 4466 2181 4281 2210 4080 C 2248 3825 2254 3737 2241 3608 C 2220 3389 2179 3233 2005 2715 C 1802 2112 1765 1984 1750 1828 C 1736 1687 1750 1595 1812 1416 C 1856 1288 1864 1254 1864 1190 C 1865 1104 1843 1046 1785 987 C 1766 967 1750 945 1750 937 C 1750 930 1766 879 1785 824 C 1843 659 1829 584 1729 533 C 1679 507 1662 506 1460 514 C 1168 527 1033 589 1036 710 C 1037 757 1046 778 1143 960 C 1207 1082 1212 1098 1240 1286 C 1251 1363 1270 1453 1281 1486 C 1299 1534 1304 1575 1307 1710 C 1314 1954 1295 2315 1265 2505 C 1193 2956 1176 3146 1177 3490 C 1177 3932 1213 4177 1327 4505 C 1461 4896 1479 4956 1490 5063 C 1502 5184 1486 5349 1445 5530 C 1330 6035 1291 6827 1351 7435 C 1361 7545 1373 7642 1376 7650 C 1379 7658 1386 7762 1391 7880 C 1400 8122 1409 8180 1481 8469 C 1572 8834 1644 9027 1766 9237 C 1865 9406 1925 9532 1940 9601 C 1949 9640 1951 9719 1947 9861 C 1943 10034 1937 10089 1911 10224 C 1894 10312 1877 10415 1874 10454 C 1866 10544 1855 10566 1845 10514 C 1841 10492 1814 10403 1784 10315 C 1709 10095 1692 10022 1681 9878 C 1675 9811 1666 9690 1660 9610 C 1638 9323 1602 9223 1389 8839 C 1194 8487 1127 8333 1089 8151 C 1057 7994 1061 7964 1129 7830 C 1213 7666 1221 7630 1213 7430 C 1208 7291 1210 7256 1224 7206 C 1234 7174 1238 7145 1235 7142 C 1223 7130 1141 7183 1116 7219 C 1064 7293 1039 7423 1059 7510 C 1064 7534 1067 7556 1064 7559 C 1055 7568 1008 7535 990 7505 C 979 7487 966 7450 960 7422 C 927 7256 928 7271 955 7236 C 1030 7138 1081 6923 1065 6774 C 1060 6728 1054 6710 1044 6710 C 1017 6710 962 6777 920 6861 C 888 6923 856 6967 786 7039 C 684 7146 661 7178 629 7264 C 609 7320 608 7330 619 7419 C 625 7472 635 7576 640 7650 C 654 7824 676 7973 693 8007 C 701 8023 710 8073 713 8120 C 716 8167 734 8277 754 8366 C 795 8553 807 8627 854 9005 C 915 9489 927 9545 1003 9716 C 1125 9988 1160 10085 1190 10236 C 1245 10505 1251 10579 1260 11115 C 1270 11710 1281 11820 1352 12040 C 1396 12178 1467 12282 1551 12335 C 1608 12371 1704 12397 1855 12415 C 2175 12453 2317 12519 2388 12662 C 2421 12729 2448 12816 2438 12825 C 2435 12828 2410 12819 2383 12805 C 2310 12767 2216 12753 2131 12768 C 1933 12802 1808 12897 1790 13026 C 1786 13059 1777 13121 1770 13164 C 1746 13311 1781 13481 1891 13753 C 1924 13834 1986 14009 2030 14140 C 2139 14468 2185 14555 2295 14640 C 2378 14704 2438 14716 2497 14680 L 2530 14660 L 2566 14685 C 2606 14712 2649 14726 2737 14740 C 2812 14751 2864 14746 2933 14720 Z"/>
  </g>
</svg>