<?xml version="1.0" encoding="utf-8"?>
<svg xmlns="http://www.w3.org/2000/svg" version="1.1" viewBox="218.465 354.786 281.446 720.395">
  <g style="">
    <title>Body</title>
    <path style="stroke: rgb(176 255 245 / 60%);" d="m369.55 359.58c-3.7255 0.70593-6.6274 1.7648-9.4902 3.4902-7.2549 4.3922-13.961 13.294-15.216 20.196-0.39215 2.3138-0.39215 3.9216 0.07843 9.1766 0.31372 3.4902 0.549 8.4707 0.549 11.02v4.7059l-1.2157 0.31372c-2.1176 0.549-2.3137 1.098-2.3137 6.7451 0.03922 7.9608 0.70588 9.6078 5.5686 13.451 2.0392 1.6078 2.6275 3.4509 3.8431 12.784 0.74511 5.4118 1.2941 8.0784 1.9216 9.5294l0.90196 2-0.86275 2.1176c-0.47058 1.1764-1.3333 3.0588-1.9216 4.1568-1.4902 2.9412-2.1569 3.255-17.294 7.5294-10.549 2.9804-12.118 3.6078-15.725 6l-2.9412 2-7.9216-0.27447c-5.0588-0.15692-9.0588-0.11768-11.059 0.15685-10.549 1.4118-18.118 6.8627-22.941 16.471-1.9608 3.8823-2.6274 6.196-4.3529 14.627-2.2745 11.412-2.3529 11.608-8.549 19.294-4.5883 5.647-6.6275 10.549-11.843 28.039-3.2549 10.824-4.3922 13.686-7.6079 19.255-3.3333 5.6862-4.1568 7.9607-6.2353 17.137-1.2549 5.5294-2.3922 9.4902-3.7255 12.745-2.1569 5.3726-3.2157 9.6079-4.2353 16.745-0.94119 6.7452-0.98041 28.784-0.03921 37.647 0.54901 5.1764 0.58822 7.7646 0.2745 17.255-0.31372 9.6078-0.50979 11.765-1.3333 15.294-2.4706 10.588-3.0196 17.608-2 24.667 1.8824 12.706 5.5686 17.216 16.314 20.039 4.6274 1.1764 10.392 1.4902 12.118 0.62745 2.4314-1.2941 3.4902-4.4314 2.1961-6.8628-0.31372-0.62745-1.451-1.8431-2.5098-2.7451-2.3529-2-3.3725-3.6078-3.7255-5.8824-0.35296-2.3137 0.66666-5.451 2.3529-7.3726l1.2941-1.4902 0.94119 0.9804c0.62744 0.5883 1.9216 3.451 3.3725 7.2549 2.5098 6.6274 3.5294 8.0784 6 8.6274 1.451 0.35295 5.4117-0.94115 5.4117-1.7254 0-0.3529-0.54901-2.0392-1.1764-3.7647-0.66669-1.7255-2.0784-6.3922-3.1765-10.392-2.4314-8.8235-3.2157-10.549-7.5686-17.02-5.9216-8.7451-7.2941-12.314-7.2941-18.706 0.03921-6.3922 1.7647-16.353 4-22.667 0.66666-1.8432 3.5294-7.9608 6.3529-13.569 7.0196-13.765 7.098-14.078 7.1372-26.471 0.03922-8.5098 0.11764-9.9608 0.86276-12.667 1.6079-5.8039 3.098-8.0392 10.078-14.98 5.6863-5.6471 6.5882-6.7059 8.8235-10.588 2.902-5.0588 8.3137-13.529 8.6275-13.529 0.11764 0 0.39214 0.82353 0.66666 1.8431 0.90194 3.7647 2.2353 6.549 6.4706 13.569 5.3333 8.7843 6.2745 10.667 7.9608 15.725 2.2745 6.8236 3.8431 16.039 4.2745 25.333 0.39217 8.1176 0.9804 12.941 2.4314 20.078 0.74509 3.6079 1.3333 7.3334 1.3333 8.2354 0 0.94115-0.549 3.1764-1.1765 5.0196-1.6863 4.7059-2.1961 8.549-3.1373 22.471-1.4118 21.725-3.3726 31.333-10.431 51.294-6.3529 17.922-8.3137 25.059-10.51 38.353-2.9412 17.647-3.5294 23.804-3.5686 36.51 0 10.157 0.11764 11.961 0.7843 14.902 1.451 6.3137 0.82355 18.471-1.9608 36.353-1.2549 7.9608-2.7843 14.039-4.9412 19.647-7.7255 20.078-9.0588 28.627-8.6667 55.372 0.11765 8.5098 0.58825 14.863 3.0588 42.549 3.2549 35.765 3.2157 34.157 1.4902 45.49-1.3334 8.6274-2.549 11.216-6.6667 14.157-3.1372 2.2353-3.7647 3.1372-4.8627 6.8235-0.90197 3.098-3.8431 8-6.4706 10.941-0.82356 0.902-2.8236 2.4314-4.4706 3.4509-4.549 2.7843-5.4118 3.5686-6.0784 5.2549-1.4117 3.5294-0.66666 5.3725 4.3138 10.745 4.8235 5.2157 6.0784 5.8823 10.392 5.5686 2.3922-0.196 3.7647-0.0784 6.2745 0.5491 5.8431 1.4902 8.7451 0.4314 14.392-5.2549l3.6471-3.6863 2.3529-5.6471c1.2549-3.098 2.4706-5.8823 2.6274-6.196 0.15685-0.2746 1.3334-0.8628 2.5882-1.2549 3.5686-1.098 5.6471-3.4118 6.7451-7.6078 0.74508-2.7844 0.66665-4.157-0.4706-9.6471-1.3333-6.3137-1.1765-9.8431 0.54902-14.078 1.7647-4.3137 1.8431-5.294 0.7843-8.8626-0.7843-2.706-0.90194-3.8824-0.86272-9.3726 0.11764-14.98 4.8628-39.569 10.51-54.118 0.94118-2.3921 2.9412-7.4117 4.4706-11.176 3.2549-7.9608 4.8627-13.765 5.9216-21.176 1.6078-11.098 1.4902-15.804-0.78433-31.373-1.6863-11.451-1.5294-12.275 4.4706-21.059 4.549-6.6667 6.0784-9.6863 7.6863-14.824 1.7255-5.6471 2.6275-10.549 3.7647-20.706 0.54902-5.0197 1.3726-10.078 1.8039-11.569 0.47057-1.4511 2.3922-5.5294 4.2745-9.0981 4.2745-7.9608 6.5098-13.02 14.98-33.726 6.3529-15.451 10.353-24.902 12-28.039l0.70588-1.4509 0.03921 5.0588c0.03922 5.7255 0.27451 6.7844 3.8039 15.726 3.7647 9.5687 5.8823 17.451 7.8824 29.216 1.6863 9.9607 4.1569 30.863 4.5098 38.314 0.2745 5.0588 0.66668 8.6666 1.3726 11.922 1.9608 9.3334 1.8039 10.98-1.8431 22.706-4.6667 15.02-6.1569 22.863-6.4706 33.608-0.23529 8.4314 0.11766 10.902 2.8236 20.196 2.6274 8.902 2.7843 10.314 2.0392 18.118-0.47057 4.9804-0.62744 10.941-0.62744 24.431 0.03922 19.608-0.23529 24.667-2.0392 36.98-2 13.686-1.1765 16.941 4.7059 19.255 2.2745 0.90194 8.6667 1.4118 13.765 1.1373 5.2941-0.27454 6.7843 0.11767 9.8431 2.7451 7.3333 6.2744 11.137 7.9215 27.02 11.569 8.4314 1.9608 10.745 2.2354 12.863 1.6863 3.3333-0.902 5.3333-3.9608 5.3333-8.1569 0-2.4706-0.82354-3.7647-3.2941-5.2157-1.2941-0.74513-1.8039-1.3334-2.0392-2.3529-0.4706-1.9216-2.6274-3.6862-5.9608-4.9412-5.451-2-9.5686-4-12.353-5.8431-1.7647-1.1765-6.4314-5.4902-12.353-11.372l-9.4902-9.4902-0.50979-2.902c-0.27454-1.6078-0.58827-5.451-0.7059-8.5883-0.35294-9.7646 0.50983-14.745 7.098-41.098 3.1372-12.471 6.1176-24.863 6.6667-27.569 1.7255-8.3922 2.7843-18.078 4-35.451 0.58822-8.549 0.7059-9.3333 2.3137-14.902 2.902-10 4.1176-18.588 4.1176-29.176v-3.7255l2.1569-3.5294c5.098-8.4706 7.7647-17.961 9.9608-35.529 2.3137-18.471 2.7451-33.843 1.2549-45.098-2.8627-21.922-4.3922-28.941-9.6078-44.51-2.7059-7.9608-3.8039-12-5.8431-21.569-3.5294-16.274-3.8039-18.314-4.1961-30.784-0.39214-12.549-0.94116-16.157-3.7647-23.686-0.98038-2.6274-1.8824-5.2156-2-5.8038-0.11765-0.58819 0.35297-3.2941 0.9804-6.0784 0.66667-2.7451 1.4118-6.5883 1.6471-8.5099 0.43136-3.3333 0.5098-3.6078 3.098-7.451 4.0784-6.0784 7.451-11.804 9.451-16.078l1.8431-3.8432 2.2353 3.7647c3.1765 5.294 4.8235 9.3725 5.9608 14.471 2.4706 11.373 3.4902 14.392 7.6863 22.784 2.1961 4.353 2.3922 4.9412 2.7451 8.6275 0.23529 2.3137 0.27451 7.8431 0.11764 13.176-0.3137 12.353-0.3137 12.471 6.8628 29.412 5.9215 14 7.8431 20.588 7.8431 26.98 0 3.4902-0.82348 8.8235-1.8823 11.922-0.62745 1.9216-0.82355 2.1568-2.8628 3.1373-2.5882 1.2157-4.3137 3.098-5.2549 5.647-1.098 3.0588-4.1568 10.745-7.2549 18.392-2.5098 6.1569-2.902 7.3726-2.902 9.5686-0.03922 2.4706 0 2.5883 1.2941 3.451 2.2745 1.5294 4.8628 0.39215 7.098-3.1373 2.8627-4.5098 2.2353-4.4314 5.8431-0.86273 1.7647 1.7255 3.1765 3.3726 3.1765 3.7255 0 0.31375-0.78436 1.6078-1.7647 2.8235l-1.7647 2.2353-2.0392-0.94116c-2.5098-1.1764-4.3922-1.2549-6.0784-0.23529-1.3725 0.86275-2 2.6666-1.2941 3.9216 0.47057 0.9412 2.7059 2.1569 4.6274 2.5882 1.1765 0.23537 1.2549 0.353 1.2549 2 0 2.4314 1.2549 3.6863 3.6863 3.6863 1.8824 0 1.8431 0.03924 5.5686-4.2352 0.9804-1.1373 1.4902-1.3334 4-1.7255l2.8628-0.43124 2.5883-5.3334c1.9608-4.0784 3.0588-5.8432 4.6667-7.5686 4-4.1961 4.6666-6.9412 5.0588-21.098 0.4314-15.451 1.4118-30.667 2.6275-41.176 1.9608-17.02 2-36.627 0.07842-50.784-1.451-10.667-2.4706-14.392-6.4706-23.255-4.1961-9.2549-4.6667-11.294-4.6667-19.647 0-9.647-0.58824-13.137-3.5294-20.588-3.9216-10.118-4.1962-11.686-4.4706-28.667-0.11768-6.4706-0.39215-13.176-0.62744-14.902-0.62744-4.3921-2.1177-8.549-4.1569-11.647-3.3333-4.9804-7.2941-7.5687-20.706-13.451-10.471-4.5883-12.706-5.8432-17.451-9.804-1.8432-1.5294-4.2353-3.451-5.3333-4.2745-2.2353-1.6863-10.353-5.7255-15.882-7.8823-2.0392-0.78431-4.0392-1.7647-4.4314-2.1176-0.54901-0.50982-0.82352-2.2745-1.4902-8.549l-0.78433-7.9216 1.3726-4.3138c1.5686-4.7843 2.3922-9.1372 2.7843-14.157 0.3922-5.7255 0.47062-5.8823 1.8039-5.8823 2.1569 0 3.9216-1.1373 4.7451-3.0588 0.70588-1.5686 0.78431-2.4313 0.62745-8.7451-0.11765-6.6666-0.15687-7.0196-1.0588-7.9608-0.5098-0.54901-1.451-1.0196-2.1569-1.098l-1.2157-0.11767-0.47061-6.8236c-1.098-16.196-3.098-24.98-6.902-30.706-2.8235-4.2352-8.4706-7.647-15.765-9.5686-4.9412-1.2941-14.627-1.647-19.451-0.74513zm12.98 0.98047c4.9804 0.62744 9.2157 1.804 13.176 3.7255 9.6078 4.6276 12.745 12.275 14.471 35.255 0.31372 4.5098 0.78431 8.4706 1.0588 8.7451 0.23529 0.27453 0.90198 0.50982 1.5294 0.50982 2.0392 0 2.3922 1.1373 2.4314 8.1177 0.07843 7.2156-0.27451 8.7843-2.1961 9.5686-0.66666 0.27454-1.9216 0.50983-2.8235 0.549l-1.5686-5e-5 -0.47057 5.4902c-0.62747 7.3726-1.1373 10.235-2.7843 15.294-0.86274 2.6274-1.3725 4.9412-1.3333 5.8824 0.35294 5.7647 1.451 14.706 1.9216 15.725 0.5098 1.0981 1.2157 1.5294 6.1176 3.4902 10.157 4.1176 13.176 5.8431 20.353 11.804 4.6667 3.8824 7.4118 5.451 16.784 9.4902 12.314 5.3334 15.333 7.0588 19.02 10.902 5.0196 5.2157 6.4706 11.569 6.4706 28.941 0.03918 14.628 0.50976 17.804 4.1176 27.098 3.3726 8.6667 3.451 9.0981 3.5687 18.431 0.07843 4.5098 0.23535 8.8628 0.35298 9.6079 0.549 3.1372 2.3921 8.3921 4.902 13.922 3.8039 8.4314 4.9019 12.392 6.2745 23.137 1.9216 14.941 1.8431 32.902-0.19604 49.608-1.098 9.1372-2 23.451-2.549 40.392-0.1961 6.3529-0.54901 12.627-0.82354 13.922-0.54902 3.0588-2 5.647-4.2353 7.7255-1.4117 1.3333-2.3137 2.7843-4.2745 7.0196l-2.5098 5.3333-2.3138 0.2744c-2.9804 0.31375-3.3726 0.5098-5.8431 3.3726-1.8432 2.1176-2.1961 2.3529-3.5687 2.3529-1.7255 0-1.8431-0.15687-2.2353-2.9804-0.27451-1.8039-0.31372-1.8431-2.2745-2.5099-3.0588-1.0588-3.6863-1.4901-3.6863-2.549 0-0.6667 0.35297-1.1373 1.1765-1.5687 1.3333-0.70584 2.4706-0.50984 5.1765 0.82356 1.0196 0.50975 2.0392 0.94115 2.2353 0.94115 0.62744 0 4.7451-5.9216 4.7451-6.7843 0-1.098-7.451-8.6274-8.2353-8.3138-0.31373 0.1177-1.5294 1.7255-2.7059 3.5686-2.353 3.7647-4 4.9412-5.8039 4.1177-0.74512-0.35296-0.90198-0.7059-0.90198-2.2745 0.03922-2.2353 0.23529-2.8628 5.3726-15.608 2.1569-5.4118 4.2353-10.667 4.6274-11.686 0.90198-2.5882 2.3529-4.1569 4.7843-5.2157 2.4706-1.098 2.9804-1.804 4.0392-5.8431 3.0196-11.647 1.7647-18.588-7.1372-39.412-6.2353-14.549-6.9019-17.412-6.1569-25.647 0.39215-4.353 0.39215-6.8236 0.03922-12.157l-0.4706-6.7059-2.7059-5.6863c-3.8039-7.9607-4.5882-10.078-5.9608-15.882-0.66666-2.8236-1.5294-6.4313-1.9216-8.0784-0.98038-4-2.6667-8-5.3333-12.51-3.6863-6.2354-4.1961-6.4314-5.8823-2.4706-1.6471 3.8431-5.1765 10.078-9.451 16.549l-3.7647 5.7256-0.50979 3.9216c-0.31373 2.1569-1.0981 6.2353-1.8039 9.0588l-1.2549 5.1765 1.8039 4.6274c3.3333 8.5882 4.0784 12.784 4.4314 25.255 0.35292 13.137 0.50979 14.157 4.3529 31.961 2 9.098 3.1372 13.373 5.0588 18.823 4.8628 13.882 6.7451 21.804 8.9804 37.647 2.7059 19.059 2.8235 26.039 0.7843 46.078-2.2353 22.078-5.098 33.294-10.863 42.706l-2.0392 3.3334-0.2745 8.2353c-0.35298 11.098-0.82355 14.078-4.2353 26.314-1.3725 4.9019-1.5686 6.2745-1.9608 12.941-0.82351 13.726-1.8039 23.686-3.1764 31.726-1.0196 6-0.98041 5.9215-7.451 31.804-3.3726 13.451-5.8039 24.078-6.3137 27.451-1.0588 7.0195-1.1373 16.745-0.19608 22.274l0.66666 3.8039 9.1765 9.1373c12.353 12.353 14.235 13.725 23.569 17.333 5.6078 2.1569 6.9804 3.0981 7.451 5.1374 0.2745 1.098 0.74511 1.7254 1.7255 2.3137 2.7843 1.647 3.5686 2.7058 3.5686 4.7843-0.03922 2.4706-1.1765 4.9803-2.8235 6-1.8431 1.1765-5.5294 0.902-14.039-1.098-13.451-3.1374-17.922-4.7843-22.157-8.1177-6.9019-5.3726-7.2549-5.6078-9.2549-6.0392-1.2549-0.2745-3.8039-0.353-6.7843-0.1961-5.0196 0.2745-10.157-0.2353-12.51-1.2157-1.5294-0.62744-3.2157-2.353-3.7647-3.8431-0.70588-1.8039-0.50978-6.7059 0.5098-13.608 1.7255-11.49 1.8824-14.314 2.2745-38.627 0.62746-37.843 0.78432-33.49-1.3725-40.667-3.255-10.941-3.8432-15.373-3.0589-24.039 0.902-9.8823 2.5491-17.569 6.1569-28.902 1.1765-3.7255 2.3922-7.8824 2.7059-9.255 0.86272-3.6862 0.70587-8.5882-0.39215-14-0.62747-2.8235-1.1765-7.3333-1.4118-11.372-0.47059-7.4118-1.8431-20.196-3.3334-30.98-2.4314-17.647-4.5098-26.196-9.6079-39.294-3.2157-8.2746-3.647-10.235-3.3725-16 0.15686-2.5882 0.4706-5.6078 0.7843-6.6667 0.31373-1.098 0.62745-2.2353 0.7059-2.549 0.11765-0.39215-0.11767-0.58825-0.58825-0.58825-1.2941 0-5.8432 9.6863-14.627 31.176-10.667 26.078-12.196 29.569-16.902 38.314-3.8431 7.098-4.6274 9.2941-5.3725 15.49-0.31372 2.6667-0.82354 7.0981-1.1765 9.8824-1.1372 9.3726-3.1372 17.137-5.8039 22.392-0.62744 1.2942-2.9804 5.0197-5.2157 8.3137-4.902 7.2157-5.451 8.7059-5.1373 14.196 0.11764 2.0784 0.70587 6.8627 1.2941 10.628 0.94115 5.9607 1.098 7.9607 1.098 15.294 0 7.0589-0.11763 9.2549-0.90194 13.451-1.6078 9.0589-2.7451 12.824-7.451 24.118-5.7647 13.765-9.2941 26.784-11.765 43.216-1.8039 12.235-2.0784 23.608-0.66667 28 0.90196 2.7451 0.7843 4.353-0.58822 7.4903-2.1177 4.9411-2.2745 8.4706-0.7059 15.569 0.98042 4.4706 0.94119 7.5687-0.03921 10.274-1.0196 2.7058-3.2941 4.8235-5.5294 5.1764-0.90195 0.1569-2 0.6276-2.5098 1.098-0.47058 0.4707-1.9216 3.3726-3.1764 6.5099-2.2745 5.6471-2.3138 5.7255-5.7647 9.2941-5.2941 5.4902-8.3138 6.5882-13.647 4.9411-1.451-0.4313-3.2941-0.6274-5.9608-0.5489-4.7451 0.0784-5.0588-0.0785-9.6863-5.098-4.0392-4.3922-4.2745-4.7844-4.2745-7.0197 0-2.8628 0.5098-3.451 5.8823-6.7843 1.6471-1.0196 3.7255-2.6274 4.6274-3.6079 2.6274-2.8235 6.1961-8.6665 6.7451-10.941 0.78433-3.3332 1.6863-4.7058 4.4706-6.7058 3.2549-2.3137 5.0196-4.9411 6.0392-8.902 1.0196-3.9608 2.4706-15.373 2.4706-19.333-0.03922-1.7255-1.2941-16.627-2.8235-33.137-2.5098-27.176-2.7843-31.176-3.0196-42.549-0.39214-22.275 1.1373-34.627 5.8432-46.863 5.0196-13.02 6.7843-19.765 8.5098-32.353 2.0392-14.902 2.549-25.686 1.4118-30.784-0.31372-1.4118-0.78432-5.6863-1.0196-9.5294-0.62745-10 0.15688-20.157 3.0196-38.706 2.1569-14.157 4-21.412 8.8627-35.49 7.451-21.451 8.6275-25.529 10.549-36.941 0.7843-4.7059 1.4117-10.667 1.9216-18.353 1.1764-17.333 1.6078-20.51 3.4117-25.176 1.3334-3.5294 1.2941-6.5098-0.2353-13.647-1.4117-6.7058-1.8823-10.824-2.3921-20-0.35294-7.451-1.6863-16.274-3.2941-22.353-1.4902-5.4902-3.4902-9.8039-8.1569-17.569-5.0196-8.2353-6.3529-11.02-7.4117-15.137-0.82355-3.2157-1.098-3.6863-1.9608-3.3726-0.7059 0.27456-5.2941 7.2549-9.2549 14-2.8627 4.902-3.3726 5.5687-9.3726 11.49-5.7647 5.7254-6.4706 6.549-7.9216 9.6078-2.8235 5.804-3.8039 11.216-3.1764 17.922 0.47058 5.2157 0.03921 10.157-1.2941 14.353-0.47058 1.5686-3.098 7.2157-5.8431 12.627-2.7451 5.3726-5.451 11.137-6.0392 12.745-2.5882 7.2549-4.2353 16.431-4.2745 23.725-0.03922 7.2156 1.098 10.196 7.7255 20.118 4.1961 6.2745 4.7451 7.451 7.1372 16.353 0.9412 3.4509 2.2745 7.7646 2.9412 9.5686 0.74507 2.0784 1.0588 3.4509 0.8235 3.6863-0.19607 0.19603-1.1372 0.4314-2.0784 0.50976-2.7451 0.27457-3.4902-0.62743-6.2353-7.9215-2.5098-6.6274-3.647-8.3922-5.451-8.3922-2.3529 0-5.098 4.6667-5.098 8.5883 0 3.3725 0.66665 4.7451 3.6078 7.5686 3.1765 3.0588 3.8039 4.5882 2.6274 6.549-1.0588 1.7646-2.9804 2.196-7.1765 1.647-3.8824-0.50985-9.3725-2.0393-11.647-3.2157-4.7843-2.4314-7.3726-6.7843-8.7451-14.863-1.2549-7.2549-0.74508-15.098 1.6863-25.686 1.0588-4.8236 1.1373-5.7647 1.4118-16.863 0.19607-9.2549 0.11764-13.137-0.35294-18.235-1.3726-14.51-1.2157-25.843 0.58823-38.196 0.7843-5.4118 1.7647-8.8627 4.4314-15.804 0.7843-2 2.1176-6.8235 3.0196-10.745 2.1961-9.8824 2.8235-11.529 7.3725-19.098 2.1569-3.6863 3.7255-7.9608 7.2549-20.118 4.0784-13.922 6.5098-19.451 11.02-25.059 3.5686-4.3529 5.2941-7.0196 6.1961-9.3333 0.39215-0.94114 1.4117-5.2549 2.2745-9.6078 1.7255-8.549 2.5098-11.255 4.3529-14.941 2.9804-5.9608 7.098-10.275 12.275-12.824 5.6078-2.7451 6.549-2.8627 18.471-2.902l10.627-5e-5 2.7059-1.8431c3.6863-2.5098 4.9412-2.9804 16.118-6.196 10.235-2.902 14.235-4.2745 15.765-5.3726 0.5098-0.35296 1.8039-2.4706 2.8627-4.7451 2.1176-4.4314 2.1176-4.5882 0.78434-8.3137-0.43138-1.1765-1.1765-4.9804-1.6471-8.4313-0.94119-7.255-1.6863-10.588-2.7059-11.961-0.39218-0.54902-1.6863-1.7255-2.902-2.6667-3.1372-2.3922-3.6078-3.8431-3.6078-10.824v-5.4902l1.2549-0.31372c2.5098-0.66663 2.6667-1.4118 2.0784-9.451-0.94119-13.569-0.94119-16.039-0.03921-18.98 2-6.6274 8.7059-14.471 15.294-17.922 5.2157-2.7451 13.02-3.8824 20.431-2.9805z"/>
    <path d="m239.59 716.12"/>
  </g>
  <g data-zone="chests">
    <path style="stroke: rgb(255, 0, 0);" d="M 368.738 487.594 C 360.932 488.152 360.721 487.851 347.956 488.529 C 334.628 489.237 340.161 488.34 332.286 489.666 C 328.282 490.34 326.028 491.97 324.507 496.297 C 323.566 498.975 322.36 501.779 321.434 503.359 C 318.952 507.593 318.536 509.853 315.705 513.763 C 312.55 518.12 312.993 518.691 310.799 521.62 C 308.154 525.15 305.719 530.003 305.551 533.162 C 305.446 535.144 309.038 540.931 310.681 543.876 C 312.779 547.635 311.915 545.754 314.627 550.296 C 316.933 554.157 315.696 552.64 319.615 557.751 C 322.227 561.157 323.837 562.144 328.123 562.736 L 343.146 563.251 L 356.408 561.998 C 360.174 561.084 364.395 557.032 366.316 555.207 C 371.797 549.999 373.617 547.94 374.458 547.905 C 375.773 547.851 378.801 551.314 382.79 555.301 C 385.618 558.127 387.285 559.667 388.656 560.803 C 391.041 562.779 393.758 564.949 396.735 565.965 C 400.129 567.123 402.69 566.484 408.873 566.713 C 416.59 566.999 418.444 567.532 421.334 565.842 C 425.289 563.529 426.515 562.598 429.064 560.454 C 435.336 556.877 433.683 557.838 437.222 554.822 C 441.711 550.997 445.159 549.812 444.57 546.478 C 443.79 542.062 441.523 536.478 439.066 530.221 C 438.34 528.616 426.626 515.777 423.444 506.957 C 419.296 495.461 420.746 495.23 417.16 493.189 C 416.391 492.752 413.932 491.953 408.364 490.558 C 403.852 489.428 404.41 489.203 396.431 488.622 C 390.89 488.218 393.038 488.34 384.474 487.954 C 377.36 487.633 375.858 487.607 368.738 487.594 Z">
      <title>Chest</title>
    </path>
  </g>
  <g data-zone="shoulders">
    <title>Shoulders</title>
    <path style="stroke: rgb(0, 255, 43);" d="M 316.264 475.921 C 315.427 475.583 319.007 478.952 319.993 480.704 C 320.577 481.742 322.824 484.364 323.881 487.348 C 324.864 490.123 326.655 491.978 325.444 491.894 C 323.581 495.789 323.011 499.032 320.478 503.439 C 317.679 508.542 317.714 508.552 315.359 513.046 C 313.48 515.842 312.857 516.736 311.81 518.824 C 310.652 521.132 309.217 521.996 306.474 527.351 C 304.453 531.296 305.032 532.647 304.623 532.744 C 302.451 533.26 298.877 541.513 296.389 546.351 C 295.295 548.478 292.69 537.348 290.136 535.077 C 287.804 535.335 282.485 538.909 279.284 539.839 C 277.344 534.651 274.003 522.434 270.991 520.838 C 268.001 519.254 265.242 520.631 269.289 513.617 C 269.715 510.196 270.665 505.702 271.39 502.322 C 272.413 497.55 274.2 493.84 276.419 489.418 C 278.862 484.549 282.779 481.665 287.203 479.319 C 294.202 475.608 300.178 475.556 308.048 476.043 C 310.818 476.214 312.44 476.263 313.79 476.313 C 313.856 476.38 316.521 476.025 316.264 475.921 Z"/>
    <path style="stroke: rgb(0, 255, 64);" d="M 460.444 499.35 C 464.113 501.732 466.182 502.568 468.423 505.243 C 469.854 506.95 471.848 511.03 472.611 513.048 C 475.681 521.16 474.367 526.008 474.4 534.685 C 474.41 537.455 475.998 543.248 474.463 545.434 C 473.636 546.611 475.896 552.091 476.285 555.457 C 468.26 548.108 466.823 547.653 465.871 548.883 C 464.799 550.268 462.444 555.926 462.25 561.63 C 459.688 556.798 450.031 552.521 448.952 552.521 C 447.963 552.521 446.811 553.521 443.317 559.944 C 445.646 552.299 446.613 546.84 446.465 546.78 C 445.593 546.427 444.034 540.924 443.491 539.311 C 441.288 532.763 441.863 534.329 438.673 528.698 C 437.349 526.36 436.782 525.096 434.951 523.126 C 433.163 521.202 432.061 519.002 429.971 517.345 C 429.312 516.823 423.063 505.294 422.246 500.742 C 421.802 498.27 418.787 494.556 421.529 492.91 C 423.797 491.548 423.689 490.687 427.168 490.03 C 432.455 489.031 437.626 489.719 439.815 489.921 C 442.219 490.719 443.366 491.448 444.615 492.035 C 447.962 493.608 450.014 494.518 453.329 496.167 C 454.282 496.641 459.557 499.35 460.444 499.35 Z"/>
  </g>
  <g data-zone="trapezoids">
    <title>Trapezoids</title>
    <path style="stroke: rgb(0, 0, 0);" d="M 316.469 474.894 C 317.909 474.03 319.225 472.588 320.809 472.02 C 324.193 470.807 327.59 469.808 331.015 468.736 C 333.695 467.898 336.125 466.999 338.84 466.166 C 341.564 465.33 344.741 464.505 347.447 463.594 C 348.428 463.264 348.989 461.954 350.031 461.954 C 351.232 460.739 353.521 463.581 356.257 465.584 C 358.997 467.591 359.67 469.403 362.121 471.694 C 365.382 474.742 367.693 476.003 369.72 478.58 C 371.518 480.865 372.81 481.775 374.948 484.343 C 375.264 484.723 378.583 487.024 378.361 487.04 C 373.832 487.361 367.707 486.946 363.167 486.946 C 355.309 486.946 347.848 487.752 340.007 487.965 C 336.961 488.048 334.344 488.205 331.366 488.944 C 329.838 489.322 327.264 492.197 326.427 490.685 C 325.434 488.893 325.634 489.037 324.1 486.141 C 322.566 483.245 316.666 475.152 316.469 474.894 Z"/>
    <path style="stroke: rgb(0, 0, 0);" d="M 383.792 482.756 C 389.282 478.558 387.085 480.479 390.248 478.455 C 393.43 476.419 399.558 471.542 405.672 469.699 C 406.682 469.395 408.245 470.749 412.241 472.181 C 413.355 472.581 421.466 475.874 427.624 479.995 C 432.733 483.414 436.198 487.78 435.945 488.12 C 435.522 488.69 427.124 487.659 423.15 490.254 C 421.157 491.555 421.242 492.899 418.925 492.628 C 415.075 492.177 407.539 489.488 403.489 488.789 C 400.87 488.337 395.247 488.147 392.626 487.678 C 389.187 487.062 387.869 487.924 384.444 487.233 C 383.29 487 379.069 486.954 379.365 486.954 C 379.281 486.871 383.779 483.042 383.792 482.756 Z"/>
  </g>
  <g data-zone="abdominalPress">
    <title>AbdominalPress</title>
    <path style="stroke: rgb(0, 0, 0);" d="M 374.56 547.928 C 375.025 548.169 367.332 555.505 362.587 559.114 C 360.482 560.715 352.507 566.831 351.942 568.048 C 349.598 573.102 348.071 580.5 347.575 586.142 C 346.955 593.191 346.47 599.75 346.38 606.712 C 346.3 612.873 345.847 616.176 346.055 618.811 C 346.58 625.451 347.495 628.193 348.225 634.936 C 348.561 638.039 348.168 637.15 349.588 645.86 C 350.572 654.658 348.791 648.78 350.813 656.918 C 355.968 677.663 362.4 718.856 374.953 722.116 C 385.191 720.462 386.807 708.105 388.833 701.372 C 391.346 693.019 391.528 689.537 396.411 673.682 C 399.827 662.589 400.837 650.592 401.089 638.993 C 401.498 620.18 402.74 607.699 400.446 589.828 C 399.182 579.979 398.837 574.992 394.587 568.607 C 391.035 563.27 386.217 558.893 381.148 554.991 C 379.668 553.852 373.819 547.542 374.56 547.928 Z">
      <title>AbdominalPress</title>
    </path>
  </g>
  <g data-zone="obliquePress">
    <title>ObliquePress</title>
    <path style="stroke: rgb(146, 80, 163);" d="M 349.335 575.019 C 350.96 570.168 316.7 602.43 315.152 608.676 C 313.371 615.866 315.527 621.969 316.51 629.314 C 317.107 633.777 318.618 638.143 318.799 642.67 C 318.696 647.646 317.155 652.851 316.312 657.882 C 315.866 660.541 315.789 662.648 315.574 665.256 C 315.105 670.959 314.097 675.21 314.302 680.005 C 314.478 684.113 369.368 723.276 375.965 723.371 C 381.549 723.452 437.314 691.892 436.997 691.053 C 435.148 686.151 435.878 688.541 434.181 683.602 C 433.746 682.337 431.32 671.244 430.473 667.626 C 429.878 665.086 429.516 663.334 428.924 659.63 C 427.816 654.153 428.245 653.968 427.818 648.775 C 427.002 638.853 427.882 630.998 424.64 621.952 C 423.728 619.407 421.627 611.224 422 609.952 C 422.97 606.646 396.511 571.864 397.349 573.691 C 398.986 577.258 400.314 581.569 400.622 585.357 C 401.357 585.58 402.386 621.511 402.383 622.45 C 402.372 625.448 401.643 628.178 401.733 631.183 C 402.064 642.286 402.159 653.759 399.27 665.719 C 398.492 668.939 395.102 681.438 394.796 682.634 C 394.017 685.684 392.317 692.19 389.751 701.375 C 387.029 711.121 387.131 712.54 382.497 718.97 C 379.089 721.246 377.901 721.945 376.227 722.041 C 373.938 722.172 368.52 717.998 366.821 715.352 C 361.959 707.782 354.961 683.481 352.977 669.334 C 352.053 662.749 349.467 657.17 349.063 649.743 C 348.784 644.614 348.341 637.752 347.401 632.67 C 346.682 628.779 345.501 622.416 345.101 618.441 C 344.635 613.802 348.804 576.605 349.335 575.019 Z">
      <title>ObliquePress</title>
    </path>
  </g>
  <g data-zone="backMuscles">
    <title>BackMuscles</title>
    <path style="stroke: rgb(0, 0, 0);" d="M 445.588 547.078 C 445.521 547.118 445.011 550.537 444.629 551.873 C 443.964 554.203 443.458 556.601 442.799 558.944 C 441.392 563.945 439.144 568.87 437.273 573.729 C 436.195 576.528 434.584 579.318 433.068 581.886 C 430.749 585.813 425.44 593.679 425.44 593.823 C 425.44 594.752 424.96 596.276 424.759 597.184 C 424.442 598.621 415.69 651.257 414.646 650.606 C 413.685 650.831 408.258 629.122 404.813 607.77 C 402.257 591.933 399.37 586.915 401.191 580.385 C 402.99 573.934 413.393 571.905 416.454 570.588 C 419.892 569.108 435.138 557.688 437.487 555.821 C 439.694 554.067 441.25 553.289 442.814 551.291 C 443.376 550.574 445.738 546.988 445.588 547.078 Z"/>
    <path style="stroke: rgb(0, 0, 0);" d="M 294.832 558.852 C 294.832 554.551 295.334 551.815 296.842 547.849 C 297.665 545.683 298.612 543.67 299.75 541.63 C 300.977 539.428 302.663 534.147 305.054 532.882 C 305.146 532.833 305.388 533.792 305.43 533.965 C 305.595 534.643 305.69 535.486 305.878 536.171 C 306.73 539.278 307.689 540.483 308.798 542.462 C 312.498 549.062 322.248 564.716 325.94 562.986 C 328.192 561.931 330.428 563.007 332.773 563.368 C 343.06 564.954 349.423 579.706 347.27 584.883 C 346.54 586.639 346.304 592.226 344.776 602.962 C 344.362 605.871 333.88 646.149 332.372 648.643 C 331.969 649.31 313.782 601.569 312.78 597.823 C 311.097 591.525 308.317 586.681 305.806 580.652 C 304.866 578.396 301.689 574.419 300.712 572.159 C 299.39 569.102 297.442 567.052 296.713 563.891 C 295.791 559.892 295.573 560.764 295.279 559.664 C 295.144 559.16 295.094 557.621 294.97 558.128 C 294.912 558.367 295.003 559.028 294.832 558.852 Z"/>
  </g>
  <g data-zone="legMuscles">
    <title>LegMuscles</title>
    <path style="stroke: rgb(155, 140, 0);" d="M 429.575 855.152 C 427.279 855.194 421.032 846.301 418.055 845.125 C 414.468 843.708 408.726 844.015 405.974 844.291 C 402.787 844.611 394.528 849.947 393.329 850.518 C 392.632 845.432 389.496 813.003 389.316 811.352 C 388.565 804.469 387.697 799.237 386.993 793.069 C 386.469 788.477 384.335 780.309 383.211 775.984 C 381.244 768.419 377.497 761.455 375.785 753.787 C 374.136 746.404 373.449 744.6 376.055 736.854 C 376.728 736.01 378.948 736.413 380.157 736.196 C 384.311 735.452 388.902 734.433 392.829 732.899 C 405.804 727.83 421.655 718.392 428.824 713.905 C 434.431 710.395 438.892 705.695 441.174 704.887 C 441.407 704.804 445.082 725.224 446.128 733.841 C 447.272 743.264 448.4 751.875 447.711 761.802 C 446.162 784.113 444.874 790.897 443.881 795.947 C 442.443 803.26 441.555 810.016 437.886 815.659 C 437.219 816.684 436.72 819.609 433.631 823.996 C 435.18 830.585 432.574 850.423 429.575 855.152 Z"/>
    <path style="stroke: rgb(155, 140, 0);" d="M 287.371 856.995 C 287.804 849.84 309.865 845.474 314.057 847.612 C 317.754 848.067 322.455 850.293 325.096 852.706 C 326.307 856.783 326.834 857.123 325.989 860.529 C 326.537 861.856 331.694 853.697 334.786 842.211 C 336.516 835.784 337.554 822.791 338.472 818.967 C 339.861 813.183 340.42 809.579 343.801 803.469 C 346.245 799.053 348.355 794.005 350.676 789.557 C 352.581 785.907 354.099 779.889 355.962 776.202 C 362.813 762.642 367.019 749.345 374.494 735.963 C 373.575 734.423 370.684 735.079 366.599 734.164 C 362.214 733.182 356.987 731.02 353.129 728.735 C 345.883 724.442 338.425 721.332 331.704 715.986 C 324.042 709.89 319.173 704.065 312.267 697.263 C 311.951 696.404 309.585 707.873 308.699 710.969 C 306.104 720.034 301.312 733.13 298.598 743.088 C 295.259 755.339 293.961 762.345 292.165 775.728 C 291.296 782.202 290.964 786.528 290.227 793.697 C 289.926 796.623 290.208 796.748 290.404 808.405 C 290.451 811.209 291.9 818.876 291.545 828.649 C 291.187 838.508 287.914 854.372 287.371 856.995 Z"/>
  </g>
  <g data-zone="glutealMuscles">
    <title>GlutealMuscles</title>
    <path style="stroke: rgb(41, 163, 0);" d="M 312.613 695.795 C 315.349 687.558 321.705 678.24 334.992 675.602 C 339.636 675.595 346.324 680.864 350.122 683.312 C 362.924 691.563 376.896 702.29 376.896 719.215 C 376.896 723.698 376.787 728.291 376.528 732.695 C 376.519 732.027 376.104 734.529 375.8 734.68 C 374.612 735.271 374.223 736.77 373.493 737.879 C 371.198 741.365 368.869 743.619 365.474 745.995 C 355.838 752.74 345.898 752.271 334.691 753.453 C 333.99 753.527 314.816 751.624 313.457 750.409 C 309.586 746.385 311.049 733.015 311.049 727.652 C 311.049 716.963 311.126 721.523 311.248 707.198 C 311.251 706.894 311.63 696.815 311.739 696.69 C 312.012 696.375 312.899 696.098 312.613 695.795 Z"/>
    <path style="stroke: rgb(41, 163, 0);" d="M 376.721 734.141 C 376.721 715.721 381.241 702.49 395.897 690.238 C 398.255 688.267 414.409 677.501 419.394 677.077 C 426.157 676.502 437.815 696.213 440.583 703.856 C 440.569 705.379 441.122 709.98 441.302 711.597 C 441.94 717.323 441.834 718.991 441.934 724.061 C 442.037 729.288 442.531 735.539 441.75 740.561 C 441.04 745.128 439.495 751.693 436.66 754.921 C 435.586 756.144 432.521 756.094 431.391 756.195 C 425.114 756.753 415.865 756.904 409.855 755.391 C 400.719 753.092 401.218 752.127 384.354 743.576 C 379.248 740.987 376.06 734.246 376.721 734.141 Z"/>
  </g>
  <g data-zone="biceps">
    <title>Biceps</title>
    <path style="stroke: rgb(0, 94, 255);" d="M 294.592 559.378 C 291.134 562.843 289.4 567.061 286.901 571.092 C 284.896 574.327 282.146 577.545 279.548 580.324 C 276.421 583.667 274.525 586.771 269.682 586.771 C 268.445 587.071 266.075 584.058 265.685 582.941 C 263.968 578.017 263.251 572.915 264.555 567.707 C 266.802 558.735 269.217 550.124 275.901 543.291 C 278.821 540.306 281.83 539.419 285.691 538.143 C 286.749 537.793 288.552 535.763 289.738 536.017 C 290.026 536.079 291.65 539.574 291.72 539.697 C 294.291 544.192 295.745 546.89 295.745 552.15 C 295.745 554.002 295.281 555.665 295.017 557.463 C 294.93 558.056 295.081 558.665 294.956 559.255 C 294.899 559.527 294.9 560.331 294.796 560.073 C 294.706 559.849 294.644 559.142 294.592 559.378 Z"/>
    <path style="stroke: rgb(0, 36, 255);" d="M 445.037 576.798 C 445.037 579.794 448.139 582.207 448.895 585.187 C 449.762 588.605 449.818 592.141 450.538 595.575 C 451.899 602.064 455.668 610.473 460.29 615.352 C 465.514 615.174 471.485 614.195 474.729 611.215 C 476.718 609.387 476.432 605.026 476.432 602.739 C 476.432 594.269 473.468 583.772 468.974 576.725 C 467.376 574.22 466.666 571.228 464.791 568.901 C 461.822 565.214 461.168 558.455 456.445 557.136 C 455.702 556.928 449.257 553.02 448.538 553.336 C 447.868 553.631 444.621 559.644 444.297 560.229 C 442.924 562.711 439.489 566.924 440.481 569.901 C 440.854 571.021 445.912 576.181 445.037 576.798 Z"/>
  </g>
  <g data-zone="triceps">
    <title>Triceps</title>
    <path style="stroke: rgb(255, 0, 0);" d="M 243.978 569.047 C 244.057 567.83 245.033 566.97 245.282 565.828 C 245.837 563.286 246.74 561.021 247.546 558.579 C 248.391 556.016 248.443 553.238 249.39 550.727 C 250.311 548.289 251.701 546.059 252.585 543.602 C 253.156 542.017 253.351 540.224 253.723 538.59 C 254.009 537.333 254.577 535.894 255.436 534.898 C 255.906 534.352 256.65 533.577 256.65 532.793 C 256.66 531.928 257.31 531.374 257.555 530.607 C 258.699 527.024 260.459 524.532 263.139 521.83 C 263.939 521.024 265.144 519.443 266.363 519.322 C 266.455 519.313 267.051 519.841 267.198 519.916 C 268.262 520.456 269.465 520.886 270.398 521.644 C 273.404 524.088 274.355 528.286 275.473 531.646 C 276.395 534.415 277.873 537.522 278.123 540.463 C 277.83 541.197 275.534 542.641 274.897 543.381 C 272.736 545.89 270.823 548.714 269.091 551.556 C 267.416 554.304 266.791 557.449 266.042 560.538 C 264.903 565.233 264.357 569.112 264.357 573.885 C 263.541 574.776 264.173 578.092 264.173 579.121 C 259.915 583.736 255.315 586.484 249.141 587.381 C 248.732 587.441 244.026 587.711 243.929 587.411 C 242.022 581.493 244.554 574.937 243.978 569.047 Z"/>
    <path style="stroke: rgb(255, 0, 0);" d="M 464.618 568.315 C 462.523 564.158 462.841 557.443 464.879 553.314 C 465.453 552.152 465.984 551.061 466.502 549.873 C 466.535 549.799 466.877 548.829 467.106 548.902 C 468.919 549.486 471.253 552.551 472.626 553.83 C 474.614 555.681 477.614 556.863 479.232 559.095 C 480.36 560.652 480.619 562.747 481.28 564.509 C 483.213 569.658 484.307 575.148 483.782 580.716 C 483.68 581.805 482.971 582.997 482.971 584.045 C 483.037 583.916 483.053 585.521 483.053 585.972 C 483.053 587.295 483.373 588.649 483.911 589.863 C 485.543 593.539 486.519 598.187 486.241 602.265 C 486.132 603.856 485.359 605.198 484.533 606.522 C 484.498 606.579 483.789 607.872 483.654 607.741 C 481.392 607.775 478.054 603.134 477.38 601.338 C 477.143 600.705 477.034 598.878 476.622 598.453 C 476.663 596.879 475.636 595.191 475.298 593.672 C 473.808 586.987 471.402 580.841 467.931 574.915 C 467.096 573.489 465.666 568.362 464.618 568.315 Z"/>
  </g>
  <g data-zone="forearms">
    <title>Forearms</title>
    <path style="stroke: rgb(0, 255, 246);" d="M 226.861 690.05 C 226.974 689.818 237.905 686.455 243.449 685.993 C 245.298 685.839 248.516 685.514 249.787 686.741 C 246.997 682.4 247.583 679.782 246.794 676.557 C 245.669 671.96 247.499 666.207 248.35 661.723 C 250.078 652.622 252.76 646.969 255.267 642.99 C 257.864 638.869 258.904 633.6 261.478 631.216 C 261.801 629.16 263.21 626.322 263.374 625.306 C 264.029 621.251 264.576 619.873 264.347 616.251 C 264.126 612.736 263.691 609.026 263.954 605.471 C 264.081 603.76 264.825 599.926 265.502 598.347 C 267.847 592.881 269.934 590.265 274.037 586.384 C 272.13 587.381 269.616 587.989 268.06 586.571 C 266.831 585.451 265.373 584.534 265.004 582.926 C 264.854 582.27 264.719 580.118 263.922 580.236 C 262.765 580.407 260.86 582.641 259.698 583.742 C 256.542 586.734 252.089 587.454 248.562 587.66 C 247.583 587.717 246.322 587.866 244.401 587.954 C 242.21 587.569 242.38 581.148 242.982 575.697 C 243.054 575.044 243.471 571.228 243.18 571.718 C 242.589 572.713 242.186 573.796 241.599 574.795 C 239.792 577.876 238.776 580.56 237.743 584.055 C 236.02 589.88 234.772 595.774 233.293 601.658 C 231.866 607.334 229.341 611.853 228.605 617.931 C 227.232 629.275 227.96 641.793 228.251 653.213 C 228.608 667.223 229.403 670.45 228.491 679.719 C 228.261 682.056 228.184 684.34 227.534 686.607 C 227.325 687.337 226.681 690.419 226.861 690.05 Z"/>
    <path style="stroke: rgb(0, 255, 246);" d="M 472.996 703.743 C 477.116 703.743 482.917 707.024 486.446 709.062 C 487.751 709.816 490.104 711.928 491.632 711.928 C 491.648 712.515 491.588 707.904 491.694 706.725 C 492.03 702.986 491.968 698.589 492.328 694.661 C 492.93 688.088 494.019 677.107 494.34 667.841 C 494.404 665.988 495.245 659.171 495.206 656.575 C 495.194 648.253 495.273 640.471 494.337 632.193 C 493.683 626.416 493.321 620.269 491.841 614.43 C 491.311 612.338 490.571 610.835 488.71 604.535 C 488.504 603.838 487.862 603.615 487.23 600.542 C 487.244 602.545 487.11 604.396 485.997 605.967 C 485.713 606.369 485.33 607.575 484.238 608.641 C 480.38 608.675 478.635 605.373 477.075 601.457 C 477.083 604.114 477.096 607.109 476.228 609.496 C 474.294 614.81 465.277 616.147 460.452 616.147 C 460.385 620.292 460.995 623.335 461.29 627.426 C 461.735 633.618 459.985 639.862 461.139 645.999 C 461.632 648.618 462.573 651.348 464.04 653.718 C 464.68 655.914 465.876 657.791 466.757 659.945 C 469.313 666.186 471.271 672.449 473.554 678.78 C 474.472 681.327 476.282 686.062 475.769 689.277 C 475.145 693.188 475.525 699.495 472.996 703.743 Z"/>
  </g>
  <g data-zone="calfMuscles">
    <title>CalfMuscles</title>
    <path style="stroke: rgb(0, 162, 106);" d="M 283.683 872.026 C 281.789 876.999 279.583 880.727 278.505 886.696 C 276.148 899.745 274.189 916.668 275.842 930.656 C 275.835 937.994 276.335 948.778 277.515 956.104 C 279.061 965.701 279.167 975.407 279.933 985.913 C 280.604 987.556 280.853 996.835 280.853 995.762 C 281.576 996.056 282.845 988.236 283.26 985.423 C 285.105 972.943 287.384 960.464 287.384 947.653 C 287.384 934.136 290.154 919.017 287.999 905.905 C 287.01 899.89 288.984 893.511 287.841 887.256 C 286.9 882.109 286.212 874.106 283.683 872.026 Z"/>
    <path style="stroke: rgb(0, 162, 106);" d="M 302.239 995.905 C 302.173 993.348 299.625 992.033 299.332 989.482 C 297.904 977.075 297.881 964.12 297.154 951.571 C 296.13 933.919 301.342 917.099 301.342 899.503 C 301.406 893.92 305.417 881.448 310.85 878.466 C 313.627 876.942 316.109 874.307 318.629 872.3 C 319.429 871.663 320.878 870.844 320.747 870.797 C 320.748 873.675 320.8 875.468 321.193 878.335 C 321.997 884.212 323.378 891.49 323.518 897.458 C 323.811 910.004 321.401 919.235 317.766 931.102 C 316.703 934.573 314.494 938.841 312.911 942.057 C 310.615 948.864 309.099 952.367 308.014 957.118 C 305.088 969.923 302.239 982.824 302.239 995.905 Z"/>
    <path style="stroke: rgb(0, 162, 106);" d="M 388.955 867.528 C 389.048 867.147 399.363 888.626 403.367 899.44 C 406.503 907.909 406.831 919.335 406.115 928.278 C 405.334 938.041 401.394 946.967 400.136 956.596 C 399.176 963.942 400.872 973.165 398.426 979.929 C 395.758 987.306 389.328 991.74 385.896 998.401 C 385.881 998.404 386.878 993.708 386.931 992.696 C 387.145 988.572 389.081 983.828 387.634 968.491 C 386.806 959.722 388.331 953.952 389.068 933.812 C 389.151 931.545 388.81 928.685 388.788 926.48 C 388.721 919.738 386.012 917.957 383.377 904.487 C 383.407 895.52 384.152 885.374 386.79 877.901 C 387.896 874.766 388.151 870.819 388.955 867.528 Z"/>
    <path style="stroke: rgb(0, 162, 106);" d="M 427.854 874.821 C 421.582 887.703 419.759 902.545 416.641 916.479 C 414.048 928.067 410.946 939.63 409.79 951.405 C 409.481 954.548 408.628 958.554 408.368 961.496 C 407.992 965.754 408.181 971.184 408.775 975.513 C 409.036 977.417 409.496 981.581 410.502 983.952 C 410.728 985.137 410.666 985.72 411.375 986.809 C 411.666 986.961 411.03 978.924 410.869 976.669 C 410.603 972.949 409.633 968.322 410.217 964.636 C 410.53 962.656 410.993 960.267 410.993 958.253 C 411.444 956.908 412.797 947.765 413.429 945.478 C 414.645 941.086 417.632 929.121 417.856 927.55 C 418.098 925.855 419.865 919.555 420.127 918.922 C 422.278 913.722 426.411 887.557 426.242 886.126 C 425.858 882.875 428.336 878.054 427.854 874.821 Z"/>
  </g>
</svg>